<svg width="26" height="215" viewBox="0 0 26 215" fill="none" xmlns="http://www.w3.org/2000/svg">
<path d="M7.00439 3.7793L7.00439 1.6875L19.854 1.6875L19.854 8.94727L18.0786 8.94727L18.0786 3.7793L14.0708 3.7793L14.0708 8.61328L12.3042 8.61328L12.3042 3.7793L7.00439 3.7793ZM11.8911 19.6875C11.0825 19.6875 10.3647 19.582 9.73779 19.3711C9.11084 19.1602 8.58057 18.8525 8.14697 18.4482C7.71924 18.0439 7.39111 17.5576 7.1626 16.9893C6.93994 16.4209 6.82861 15.7793 6.82861 15.0645C6.82861 14.3965 6.93994 13.7842 7.1626 13.2275C7.39111 12.6709 7.71924 12.1875 8.14697 11.7773C8.58057 11.373 9.11084 11.0596 9.73779 10.8369C10.3647 10.6143 11.0825 10.5029 11.8911 10.5029C12.9634 10.5029 13.8716 10.6875 14.6157 11.0566C15.3657 11.4316 15.937 11.9648 16.3296 12.6562C16.7222 13.3477 16.9185 14.1709 16.9185 15.126C16.9185 16.0225 16.7222 16.8135 16.3296 17.499C15.937 18.1846 15.3657 18.7207 14.6157 19.1074C13.8657 19.4941 12.9575 19.6875 11.8911 19.6875ZM11.8911 12.6299C11.1821 12.6299 10.5757 12.7148 10.0718 12.8848C9.56787 13.0605 9.18115 13.3301 8.91162 13.6934C8.64795 14.0566 8.51611 14.5254 8.51611 15.0996C8.51611 15.6738 8.64795 16.1426 8.91162 16.5059C9.18115 16.8691 9.56787 17.1357 10.0718 17.3057C10.5757 17.4756 11.1821 17.5605 11.8911 17.5605C12.6001 17.5605 13.2007 17.4756 13.6929 17.3057C14.1909 17.1357 14.5688 16.8691 14.8267 16.5059C15.0903 16.1426 15.2222 15.6709 15.2222 15.0908C15.2222 14.2354 14.9351 13.6113 14.3608 13.2187C13.7866 12.8262 12.9634 12.6299 11.8911 12.6299ZM7.00439 24.1348L7.00439 22.0605L20.6802 22.0605L20.6802 24.1348L7.00439 24.1348ZM7.00439 29.1621L7.00439 27.0879L20.6802 27.0879L20.6802 29.1621L7.00439 29.1621ZM11.8911 40.7285C11.0825 40.7285 10.3647 40.623 9.73779 40.4121C9.11084 40.2012 8.58056 39.8936 8.14697 39.4893C7.71924 39.085 7.39111 38.5986 7.1626 38.0303C6.93994 37.4619 6.82861 36.8203 6.82861 36.1055C6.82861 35.4375 6.93994 34.8252 7.1626 34.2686C7.39111 33.7119 7.71924 33.2285 8.14697 32.8184C8.58056 32.4141 9.11084 32.1006 9.73779 31.8779C10.3647 31.6553 11.0825 31.5439 11.8911 31.5439C12.9634 31.5439 13.8716 31.7285 14.6157 32.0977C15.3657 32.4727 15.937 33.0059 16.3296 33.6973C16.7222 34.3887 16.9185 35.2119 16.9185 36.167C16.9185 37.0635 16.7222 37.8545 16.3296 38.54C15.937 39.2256 15.3657 39.7617 14.6157 40.1484C13.8657 40.5352 12.9575 40.7285 11.8911 40.7285ZM11.8911 33.6709C11.1821 33.6709 10.5757 33.7559 10.0718 33.9258C9.56787 34.1016 9.18115 34.3711 8.91162 34.7344C8.64795 35.0977 8.51611 35.5664 8.51611 36.1406C8.51611 36.7148 8.64795 37.1836 8.91162 37.5469C9.18115 37.9102 9.56787 38.1768 10.0718 38.3467C10.5757 38.5166 11.1821 38.6016 11.8911 38.6016C12.6001 38.6016 13.2007 38.5166 13.6929 38.3467C14.1909 38.1768 14.5688 37.9102 14.8267 37.5469C15.0903 37.1836 15.2222 36.7119 15.2222 36.1318C15.2222 35.2764 14.9351 34.6523 14.3608 34.2598C13.7866 33.8672 12.9634 33.6709 11.8911 33.6709ZM7.01318 51.0557L11.5395 49.8252C11.7622 49.7666 12.0317 49.6963 12.3481 49.6143C12.6645 49.5322 12.9897 49.4502 13.3237 49.3682C13.6636 49.2861 13.977 49.21 14.2642 49.1396C14.5513 49.0752 14.7739 49.0254 14.9321 48.9902L14.9321 48.9199C14.7739 48.8906 14.5513 48.8437 14.2642 48.7793C13.977 48.7148 13.6636 48.6416 13.3237 48.5596C12.9839 48.4775 12.6528 48.3955 12.3306 48.3135C12.0083 48.2373 11.7329 48.167 11.5044 48.1025L7.01318 46.8105L7.01318 44.543L16.7427 41.8184L16.7427 43.9102L11.9087 45.1758C11.5806 45.2578 11.2261 45.3369 10.8452 45.4131C10.4644 45.4951 10.1011 45.5654 9.75537 45.624C9.40967 45.6826 9.12549 45.7266 8.90283 45.7559L8.90283 45.8262C9.06103 45.8496 9.26025 45.8818 9.50049 45.9229C9.74658 45.9639 10.0015 46.0107 10.2651 46.0635C10.5347 46.1162 10.7866 46.1689 11.021 46.2217C11.2612 46.2744 11.4546 46.3242 11.6011 46.3711L16.7427 47.8652L16.7427 50.124L11.6011 51.5566C11.3784 51.6211 11.0972 51.6914 10.7573 51.7676C10.4233 51.8437 10.0864 51.9111 9.74658 51.9697C9.4126 52.0342 9.13427 52.0752 8.91162 52.0928L8.91162 52.1631C9.11084 52.1865 9.38037 52.2275 9.72021 52.2861C10.0659 52.3506 10.4321 52.4238 10.8188 52.5059C11.2114 52.5879 11.5747 52.6729 11.9087 52.7607L16.7427 54.0527L16.7427 56.1094L7.01318 53.3672L7.01318 51.0557ZM16.7339 70.9365L7.00439 70.9365L7.00439 69.3105L8.31396 69.0293L8.31396 68.915C7.97998 68.71 7.70166 68.4492 7.479 68.1328C7.2622 67.8164 7.10107 67.4648 6.9956 67.0781C6.88427 66.6914 6.82861 66.2842 6.82861 65.8564C6.82861 65.124 6.95166 64.4971 7.19775 63.9756C7.4497 63.46 7.83642 63.0645 8.35791 62.7891C8.87939 62.5137 9.55322 62.376 10.3794 62.376L16.7339 62.376L16.7339 64.4502L10.7661 64.4502C10.0103 64.4502 9.44482 64.6025 9.06982 64.9072C8.69482 65.2178 8.50732 65.6982 8.50732 66.3486C8.50732 66.9756 8.63623 67.4736 8.89404 67.8428C9.15185 68.2119 9.53271 68.4727 10.0366 68.625C10.5405 68.7832 11.1587 68.8623 11.8911 68.8623L16.7339 68.8623L16.7339 70.9365ZM9.78173 80.4375C9.14306 80.4375 8.604 80.2822 8.16455 79.9717C7.72509 79.6611 7.39111 79.207 7.16259 78.6094C6.93994 78.0176 6.82861 77.291 6.82861 76.4297C6.82861 75.75 6.87841 75.1641 6.97802 74.6719C7.07177 74.1855 7.21826 73.7256 7.41748 73.292L9.20166 73.292C8.98486 73.7549 8.79736 74.2734 8.63916 74.8477C8.48095 75.4277 8.40185 75.9756 8.40185 76.4912C8.40185 77.1709 8.50732 77.6602 8.71826 77.959C8.93506 78.2578 9.22216 78.4072 9.57959 78.4072C9.79052 78.4072 9.97802 78.3457 10.1421 78.2227C10.312 78.1055 10.4849 77.8828 10.6606 77.5547C10.8423 77.2324 11.0591 76.7578 11.311 76.1309C11.5571 75.5156 11.8032 74.9971 12.0493 74.5752C12.2954 74.1533 12.5913 73.834 12.937 73.6172C13.2886 73.4004 13.7368 73.292 14.2817 73.292C15.1431 73.292 15.7964 73.6318 16.2417 74.3115C16.6929 74.9971 16.9185 75.9023 16.9185 77.0273C16.9185 77.625 16.8569 78.1875 16.7339 78.7148C16.6167 79.248 16.4438 79.7695 16.2153 80.2793L14.6597 79.6289C14.853 79.1895 15.0112 78.7471 15.1343 78.3018C15.2632 77.8623 15.3276 77.4141 15.3276 76.957C15.3276 76.4238 15.2456 76.0166 15.0815 75.7354C14.9175 75.46 14.6831 75.3223 14.3784 75.3223C14.1499 75.3223 13.9565 75.3896 13.7983 75.5244C13.6401 75.6592 13.4819 75.8906 13.3237 76.2187C13.1655 76.5527 12.9692 77.0156 12.7349 77.6074C12.5122 78.1875 12.2778 78.6885 12.0317 79.1104C11.7915 79.5381 11.4956 79.8662 11.144 80.0947C10.7925 80.3232 10.3384 80.4375 9.78173 80.4375Z" fill="white"/>
<path d="M9.15651 104.486H17.8925C21.2238 104.486 23.9245 107.095 23.9245 110.313V118.753C23.9245 121.971 21.2238 124.58 17.8925 124.58H9.15651C5.82513 124.58 3.12451 121.971 3.12451 118.753V110.313C3.12451 107.095 5.82513 104.486 9.15651 104.486ZM8.94851 106.496C6.88075 106.496 5.20451 108.115 5.20451 110.112V118.954C5.20451 120.951 6.88075 122.57 8.94851 122.57H18.1005C20.1682 122.57 21.8445 120.951 21.8445 118.954V110.112C21.8445 108.115 20.1682 106.496 18.1005 106.496H8.94851ZM18.9845 108.003C19.7025 108.003 20.2845 108.565 20.2845 109.259C20.2845 109.952 19.7025 110.514 18.9845 110.514C18.2665 110.514 17.6845 109.952 17.6845 109.259C17.6845 108.565 18.2665 108.003 18.9845 108.003ZM13.5245 109.51C16.3964 109.51 18.7245 111.759 18.7245 114.533C18.7245 117.307 16.3964 119.556 13.5245 119.556C10.6526 119.556 8.32451 117.307 8.32451 114.533C8.32451 111.759 10.6526 109.51 13.5245 109.51ZM13.5245 111.519C11.8013 111.519 10.4045 112.868 10.4045 114.533C10.4045 116.198 11.8013 117.547 13.5245 117.547C15.2477 117.547 16.6445 116.198 16.6445 114.533C16.6445 112.868 15.2477 111.519 13.5245 111.519Z" fill="white"/>
<path d="M24.8797 152.723C24.0793 153.066 23.219 153.298 22.3163 153.402C23.2376 152.868 23.9454 152.023 24.2787 151.016C23.4162 151.511 22.461 151.869 21.4443 152.063C20.6302 151.225 19.4703 150.701 18.1865 150.701C15.7216 150.701 13.7231 152.632 13.7231 155.013C13.7231 155.351 13.7626 155.68 13.8387 155.995C10.1292 155.816 6.84041 154.099 4.63908 151.49C4.25487 152.127 4.03476 152.868 4.03476 153.658C4.03476 155.154 4.8227 156.474 6.02035 157.247C5.28877 157.224 4.60047 157.031 3.99876 156.708C3.99833 156.726 3.99833 156.744 3.99833 156.762C3.99833 158.851 5.53685 160.593 7.57864 160.99C7.20414 161.088 6.80982 161.141 6.40277 161.141C6.11517 161.141 5.83556 161.114 5.56299 161.064C6.13098 162.776 7.7793 164.023 9.73243 164.058C8.2049 165.214 6.28039 165.904 4.18922 165.904C3.82896 165.904 3.47368 165.883 3.12451 165.843C5.09974 167.067 7.44586 167.781 9.96639 167.781C18.176 167.781 22.6655 161.211 22.6655 155.513C22.6655 155.326 22.6611 155.14 22.6525 154.955C23.5246 154.347 24.2814 153.588 24.8797 152.723Z" fill="white"/>
<g clip-path="url(#clip0_11_18)">
<path d="M16.6358 196.734H18.7244V193.06C18.3641 193.01 17.1249 192.897 15.6816 192.897C12.6703 192.897 10.6075 194.811 10.6075 198.327V201.563H7.28442V205.67H10.6075V216.005H14.6817V205.671H17.8703L18.3765 201.564H14.6807V198.734C14.6817 197.547 14.9982 196.734 16.6358 196.734V196.734Z" fill="white"/>
</g>
<defs>
<clipPath id="clip0_11_18">
<rect width="24.96" height="24.1122" fill="white" transform="translate(1.04443 190.888)"/>
</clipPath>
</defs>
</svg>
